<svg width="38" height="56" fill="none" xmlns="http://www.w3.org/2000/svg"><path fill="#16161A" d="M0 8h38v38H0z"/><path d="M30.703 9.875h6.844l-3.844 22.523c-.36 2.532-1.195 4.711-2.508 6.54-1.297 1.812-2.968 3.203-5.015 4.171-2.032.953-4.32 1.414-6.867 1.383-2.375-.047-4.446-.562-6.211-1.547-1.75-1-3.063-2.39-3.938-4.172C8.29 36.977 8 34.86 8.297 32.422L12.14 9.875h6.843l-3.82 22.57c-.14 1.172-.101 2.25.117 3.235.235.968.703 1.758 1.406 2.367.72.594 1.735.906 3.047.937 1.391.047 2.578-.203 3.563-.75a6.247 6.247 0 0 0 2.367-2.32c.594-1.016.992-2.18 1.195-3.492l3.844-22.547Z" fill="#2CB67D"/><path fill="#16161A" d="M0 44h38v2H0zM0 8h38v2H0z"/><path d="m6.398 9.875 12.024.023c2.078.032 3.96.415 5.648 1.149 1.703.734 3.024 1.836 3.961 3.305.953 1.468 1.352 3.335 1.196 5.601-.157 1.86-.61 3.43-1.36 4.711a10.198 10.198 0 0 1-2.976 3.258c-1.235.89-2.657 1.656-4.266 2.297l-2.39 1.148H7.124l.938-5.484 7.64.047c1.14-.016 2.18-.235 3.117-.657a5.937 5.937 0 0 0 2.32-1.828c.626-.812 1.016-1.797 1.172-2.953.141-1.015.07-1.898-.21-2.648a3.366 3.366 0 0 0-1.383-1.758c-.657-.422-1.492-.648-2.508-.68l-5.883-.023L7.36 44H.492L6.398 9.875ZM19.172 44 14.25 28.79l6.914-.048 5.32 14.883V44h-7.312Z" fill="#7F5AF0"/></svg>