<svg width="500" height="500" fill="none" xmlns="http://www.w3.org/2000/svg"><g clip-path="url(#a)"><path fill="#16161A" d="M0 0h500v500H0z"/><path d="M408.082 28.219h88.398l-49.648 290.927c-4.642 32.696-15.439 60.85-32.393 84.463-16.751 23.412-38.346 41.374-64.785 53.887-26.237 12.311-55.804 18.265-88.701 17.861-30.677-.605-57.418-7.265-80.224-19.98-22.605-12.917-39.558-30.879-50.86-53.887-11.302-23.209-15.036-50.556-11.201-82.041l49.648-291.23h88.399l-49.346 291.533c-1.816 15.137-1.312 29.062 1.514 41.777 3.027 12.513 9.082 22.705 18.164 30.576 9.284 7.67 22.402 11.706 39.355 12.11 17.963.605 33.301-2.624 46.016-9.688 12.715-7.063 22.907-17.054 30.576-29.97 7.669-13.119 12.816-28.155 15.44-45.108l49.648-291.23Z" fill="#2CB67D"/><path fill="#16161A" d="M0 471h499v29H0zM0 0h500v36H0z"/><path d="m82.647 30.023 155.302.303c26.843.404 51.162 5.349 72.959 14.834 21.999 9.486 39.053 23.714 51.162 42.686 12.312 18.971 17.458 43.089 15.44 72.353-2.018 24.017-7.871 44.3-17.559 60.85-9.486 16.549-22.301 30.576-38.447 42.08-15.944 11.504-34.31 21.393-55.098 29.668l-30.879 14.834H92.031l12.11-70.84 98.691.605c14.733-.201 28.154-3.027 40.264-8.476 12.109-5.449 22.099-13.32 29.97-23.613 8.073-10.495 13.119-23.21 15.137-38.145 1.817-13.118.908-24.521-2.724-34.209-3.431-9.687-9.385-17.256-17.862-22.705-8.476-5.449-19.274-8.376-32.392-8.779l-75.987-.303-64.18 369.639h-88.7L82.645 30.023Zm164.99 440.782L184.062 274.33l89.307-.605 68.721 192.236v4.844h-94.453Z" fill="#7F5AF0"/></g></svg>